<?xml version="1.0" encoding="utf-8"?>
<!-- Generator: Adobe Illustrator 23.1.0, SVG Export Plug-In . SVG Version: 6.00 Build 0)  -->
<svg version="1.1" id="图层_1" xmlns="http://www.w3.org/2000/svg" xmlns:xlink="http://www.w3.org/1999/xlink" x="0px" y="0px"
	 viewBox="0 0 36 36" style="enable-background:new 0 0 36 36;" xml:space="preserve">
<style type="text/css">
	.st0{fill:#FFD983;stroke:#EDF2F6;stroke-dasharray:180;stroke-dashoffset:180;}
	.st1{fill:#A0041E;stroke:#EDF2F6;stroke-dasharray:180;stroke-dashoffset:180;}
	.st2{fill:#FFE8B6;stroke:#EDF2F6;stroke-dasharray:180;stroke-dashoffset:180;}
	.st3{fill:#E6E7E8;stroke:#EDF2F6;stroke-dasharray:180;stroke-dashoffset:180;}
	.st4{fill:#A7A9AC;stroke:#EDF2F6;stroke-dasharray:180;stroke-dashoffset:180;}
</style>
<title>🥩: cut of meat (U+1F969) - emojiall.com</title>
<path class="st0" d="M18,11c-9,0-17,3.5-17,9c0,4.2,4,7.6,10,7.6c3.5,0,7.1-2.1,9.7-2.1c0.1,0,0.2,0,0.3,0c3.9,0.2,4,3.5,9,3.5
	c2.3,0,5-2.1,5-6.9C35,15.8,28,11,18,11z"/>
<path class="st0" d="M33,18h2v4h-2V18z M1,16h2v4H1V16z"/>
<path class="st1" d="M30,24.3c-2.3,0-3.3-0.8-4.5-1.6c-1.1-0.8-2.3-1.7-4.5-1.8c-0.1,0-0.2,0-0.4,0c-1.4,0-3,0.5-4.6,1
	c-1.7,0.5-3.5,1.1-5.1,1.1c-5.2,0-9-2.9-9-6.9c0-5.4,8.2-8.3,16-8.3c9.3,0,16,4.4,16,10.4C34,22.6,31.6,24.3,30,24.3z"/>
<path class="st2" d="M18,8.4c8.7,0,15,4.1,15,9.7c0,4.1-2.1,5.5-3,5.5c-1.8,0-2.6-0.6-3.7-1.4c-1.1-0.8-2.5-1.9-5.1-2
	c-0.1,0-0.3,0-0.4,0c-1.6,0-3.3,0.5-5,1.1c-1.6,0.5-3.3,1-4.7,1c-4,0-8-2.1-8-6.2C3,11.1,10.7,8.4,18,8.4 M18,7C9,7,1,10.5,1,16
	c0,4.2,4,7.6,10,7.6c3.5,0,7.1-2.1,9.7-2.1c0.1,0,0.2,0,0.3,0c3.9,0.2,4,3.5,9,3.5c2.3,0,5-2.1,5-6.9C35,11.8,28,7,18,7z"/>
<path class="st2" d="M16.2,8.4c0,0,2.8-0.1,4.8,1.3c1,0.7,0.3,2.3,0.3,2.3l1.7,0.5c0,0-0.1-0.8,3-1.4c2.3-0.4,4.5,1.4,4.5,1.4
	S28,9.1,23,8.4C18,7.7,16.2,8.4,16.2,8.4z"/>
<path class="st3" d="M25,13.9c0,1.5-1.8,2.8-4,2.8s-4-1.2-4-2.8s1.8-2.8,4-2.8S25,12.4,25,13.9z"/>
<path class="st4" d="M23,13.9c0,0.8-0.9,1.4-2,1.4s-2-0.6-2-1.4s0.9-1.4,2-1.4S23,13.2,23,13.9z"/>
</svg>
